<?xml version="1.0" encoding="utf-8"?>
<!-- Generator: Adobe Illustrator 23.0.3, SVG Export Plug-In . SVG Version: 6.00 Build 0)  -->
<svg version="1.1" id="Layer_1" xmlns="http://www.w3.org/2000/svg" xmlns:xlink="http://www.w3.org/1999/xlink" x="0px" y="0px"
	 viewBox="0 0 492 616" style="enable-background:new 0 0 492 616;" xml:space="preserve">
<style type="text/css">
	.st0{fill:#FFE2E0;}
	.st1{fill:#00000B;}
	.st2{fill:#C78982;}
	.st3{fill:#FFFFFF;}
	.st4{fill:#FFE1A8;}
	.st5{fill:#FFAFA1;}
	.st6{fill:#263139;}
	.st7{fill:#99644C;}
	.st8{fill:#47B275;}
	.st9{fill:#C6DAFF;}
</style>
<title>Homepage Hero_Desktop</title>
<g>
	<rect class="st0" width="491.9" height="616"/>
	<path class="st1" d="M86.1,298L86.1,298c-18.3-13.6-22.4-39.7-9-58.3c1.5-2.1,3.2-4,5-5.8l9.3-8.8c21.4-20.4,53-24.8,79-11.2l0,0
		c2.9,1.5,6,2.3,9.3,2.3h12.2c18.2,0,35.3,8.8,46,23.8l0,0c2,2.7,3.2,5.9,3.6,9.2l8,56.4L86.1,298z"/>
	<path class="st2" d="M224.6,379.4l-30.4,53l-12.4,12.3c-7.4,7.3-12.2,16.9-13.8,27.3l-1.9,14.9c0-12.2-7.1-44.7-12.2-64.3
		c-1.9-7.2-9.3-11.6-16.3-9.6c-0.3,0.1-0.7,0.2-1,0.3l-18.5,6.5c-7.8,2.7-16.2-1.4-18.9-9.3c-0.4-1.1-0.6-2.2-0.8-3.4l-1.6-15.5
		c-0.2-2.3-1.3-4.4-3-6l-3.1-2.9c-1.7-2.7-1-6.3,1.7-8c0.1,0,0.1-0.1,0.2-0.1l0,0c5.6-3.3,9.8-8.6,12.1-14.8l3.2,3.8
		c0,0-10.8,8-16.2,7.9c-1.3,0-2.6-0.6-3.4-1.6h-0.1c-1.3-1.5-1.6-3.6-0.8-5.5c0.8-1.8,0.8-4.2-2.9-5.8l-11.3-4.5
		c-2.8-1.3-4-4.6-2.8-7.4c0.2-0.5,0.5-0.9,0.8-1.3l15.5-18.8c3.3-4.1,4.4-9.6,2.9-14.6l-1.2-3.8c-6.4-21,0.5-43.9,17.4-57.5
		l19.6-15.9L224.6,379.4z"/>
	<ellipse class="st1" cx="117.6" cy="274.8" rx="25.9" ry="26.3"/>
	<path class="st1" d="M98.1,257.3l15.2-22.5l14.2-6.5L192,327l-11.2,23.3l0,0c-12,6.9-27.2,2.6-34-9.5c-0.9-1.6-1.6-3.3-2.2-5
		l-7.2-23.7c-2.2-7.3-9.3-12-16.7-11l0,0L98.1,257.3z"/>
	<path class="st1" d="M86.1,298l15.2,1.2l5.5,4.9l-19.1,2.1l-0.2-0.6C86.6,303.2,86.1,300.6,86.1,298z"/>
	<path class="st1" d="M113.3,309.1c-1.4-0.2-2.9,0.4-3.8,1.4l-4.8,4.9v0.1l0,0l-2,2.1c-1.6,1.7-3.9,2.3-6.2,1.7l-0.2-0.1
		c1.6,0.4,3.2,0,4.4-1.2l0.3-0.3c-1.6,0.4-3.2,0.1-4.6-0.7l-0.2-0.1c1.4,0.8,3.2,0.8,4.6,0l0.7-0.4c-1.5,0.1-2.9-0.3-4.1-1.1
		l-0.2-0.2c0.3,0.2,0.6,0.4,0.9,0.5c0.6,0.4,1.4,0.5,2.1,0.4c0.3,0,0.5-0.1,0.8-0.2c0.1,0,0.1,0,0.2-0.1h0.1
		c0.2-0.1,0.4-0.2,0.6-0.4l0.2-0.2l0,0l6.2-4.7l0.6-0.4c1.3-0.9,3-1.3,4.5-1.1L113.3,309.1L113.3,309.1z"/>
	<path class="st1" d="M101.2,315.6c-0.1,0-0.1,0-0.2,0l0,0H101.2z"/>
	<path class="st1" d="M101.2,315.6c-0.1,0-0.1,0-0.2,0l0,0H101.2z"/>
	<path class="st2" d="M101.2,315.6c-0.1,0-0.1,0-0.2,0l0,0H101.2z"/>
	<path class="st3" d="M194.3,432.4l-13.7,13.5l-5.9,6.4c-7.2,7.7-10.6,18.4-9.3,28.9l0,0c2.6,19.9,0.6,40.1-5.7,59.1l-25,75.6h92.9
		l39.2-168.8L194.3,432.4z"/>
	<path class="st4" d="M262.4,307.3h-78.9c-14.5,0-26.2-11.9-26.1-26.6c0-0.9,0-1.8,0.1-2.7l0,0c2-20.1,19.7-34.8,39.4-32.7
		c0.8,0.1,1.5,0.2,2.2,0.3l41.8,7L262.4,307.3z"/>
	<path class="st4" d="M277.8,334.8l-70.2-36.6c-12.9-6.7-17.9-22.7-11.3-35.9c0.4-0.8,0.9-1.6,1.3-2.3l0,0
		c10.8-16.9,33.1-21.8,49.7-10.8c0.6,0.4,1.3,0.8,1.9,1.3l34.1,25.6L277.8,334.8z"/>
	<path class="st4" d="M305.8,386.1l-5.3,7.5c-10,14-10.8,32.8-2.1,47.6l16.2,27.3l33.5-23.8L336,395.8L305.8,386.1z"/>
	<path class="st5" d="M237.6,277.1l-53.4,22.6c-2.3,1-3.8,3-4.3,5.4l-3.6,19.8c-1.1,6,0.3,12.1,3.9,16.9l0,0c1.5,2,1.9,4.7,1,7
		l-14.8,38.8c-1.5,3.5,0.1,7.6,3.5,9.1c1.5,0.7,3.2,0.8,4.6,0.3l8.7-2.6c1.8-0.5,3.5,0.5,4,2.3c0.1,0.4,0.2,0.8,0.1,1.2l-0.5,6.3
		l-0.8,1.2c-1.5,2-1,4.8,1,6.3c0.1,0.1,0.3,0.2,0.5,0.3l0,0c3.1,1.7,6.7,1.8,9.7,0.1l7.6-4l-14.7,15.1c-1.8,1.9-1.8,4.9,0,6.7
		c0.4,0.4,0.8,0.7,1.3,0.9l2.8,1.3c1.3,0.6,1.9,2.2,1.3,3.5l-3.1,7.1c-4.1,9.7,0.3,20.9,9.8,25.1c3.6,1.6,7.7,2,11.5,1.1l92.2-20.9
		l35.4-50.3l-40.9-51.4L242.7,287L237.6,277.1z"/>
	<path class="st4" d="M218.1,289.2l-1.9,13.2c-1.2,8.1,3.1,16,10.4,19.4l7.1,3.3l19.8-17.1l-17.7-17.2L218.1,289.2z"/>
	<path class="st4" d="M262.4,356.5l-2.1,102.3l-46.7,10.5c-1.3,0.3-2.7,0.4-3.9,0.4l0,0c-10.4-0.1-18.7-8.7-18.7-19.2
		c0-2.5,0.5-5.1,1.6-7.4l3.1-7.1c0.6-1.3,0-2.9-1.3-3.5l16.6-16.8c3.2-3.2,3.2-8.3,0.1-11.5c-1.8-1.9-4.3-2.7-6.9-2.3l-17.1,2.6
		l0.5-6.3c0-0.4,0-0.7-0.1-1.1l0,0l36-5.5c7.9-1.2,13.8-7.9,14-16l1-28.1L262.4,356.5z"/>
	<path class="st4" d="M305.8,386.1l25,26.4l-24.7,35.7l-10.8-15.1c-6.9-9.6-6.9-22.7,0-32.4L305.8,386.1z"/>
	<path class="st4" d="M191.1,332.2l6,2.4c1.2,0.5,1.9,1.8,1.4,3.1l0,0c-0.4,1-1.3,1.7-2.4,1.6l-9.8-0.4l-6.1,3.1l-0.5-0.7
		c-1.6-2.3-2.8-5-3.3-7.8l0,0l6.4-1.8C185.5,331,188.5,331.1,191.1,332.2z"/>
	<path class="st3" d="M177.7,371.9L177.7,371.9c-1.1,0.2-2.2-0.4-2.6-1.4l-3.3-9.4l-4.1-11.5l-5.6-15.6c-0.4-1.2,0.2-2.4,1.3-2.8
		c0.1,0,0.2-0.1,0.3-0.1l0,0c1.1-0.2,2.2,0.4,2.6,1.4l6.6,18.4l3.9,10.9l2.7,7.3c0.4,1.2-0.2,2.4-1.3,2.8
		C177.9,371.9,177.8,371.9,177.7,371.9z"/>
	<polygon class="st3" points="267.8,329.4 172,353.5 170.6,347.5 266.6,323.3 	"/>
	<path class="st1" d="M306.1,448.2l-64.6,14.5c-4.6,1.1-7.6,5.7-6.6,10.5c0.1,0.3,0.2,0.6,0.3,0.9l3.9,11c3,8.3,3.2,17.4,0.7,25.9
		l-31.1,105h87.6L306.1,448.2z"/>
	<path class="st1" d="M248.1,225.1c-4.5,0.4-8.1-5.6-5.6-9.5c-7.4,0.7-13.7-7-13.4-14.6s6-14,12.7-17.1c1-0.5,2.8,0.5,1.9,1.1
		c-2-14.2,7.9-27.4,21.9-29.3c1.1-0.2,2.3-0.2,3.4-0.2c3.5-9.1,11.5-16,20.5-19.6s18.9-4,28.5-2.8c2.4,0.4,4.7,0.6,7.2,0.5
		c2.3-0.3,4.5-0.9,6.7-1.6c18.2-5.7,39.2-5.9,54.9,5c3.6,2.6,7,5.7,11.1,7.6c5.4,2.5,11.8,2.5,16.5,6.1c4.9,3.8,6.6,10.4,6.9,16.6
		c0.1,2.4,0.1,5.1,1.7,6.9c1.4,1.7,3.6,2.2,5.6,3.1c9.1,3.9,13.3,14.6,9.5,23.9c-0.9,2.1-2.2,4.1-3.7,5.7c3.7,1.6,7.5,3.4,10.3,6.2
		c2.9,2.8,4.7,7.2,3.5,11.1c-0.6,2.1-1.9,3.8-2.9,5.7c-3.3,6.2-3.6,13.7-1,20.2c-19.3,2-37.4,14.3-56.7,12c-8.7-1-16.7-4.9-24.5-8.9
		c-13.3-6.9-26.5-14.2-40.6-19.1c-23.9-8.3-49.6-9.2-74.9-9.9"/>
	<path class="st6" d="M258.6,215.4h93.2c19.3,0,35,15.9,35,35.6v41.8l0,0h-128l0,0L258.6,215.4L258.6,215.4z"/>
	<path class="st7" d="M396,365.5l-78.6,45.6L300,373.7c-2-4.3-6.5-6.7-11-6l-22.9,3.6c-4.2,0.7-8.6,0.2-12.6-1.4
		c-12.3-4.9-18.1-19.3-13.2-31.9l0.9-2.2c1.3-3.3-0.1-7.1-3.2-8.7l-4-2.1c-2.1-1.2-2.8-3.9-1.6-6l0.1-0.1l0,0
		c0.6-0.9,1.4-1.5,2.4-1.8c0.8-0.3,2.8-1,4.5-1.6c2.2-0.8,4.9-1.5,3.8-1c-5.5,2.6-16.3-1-13.2-6.6c0.1-0.2,0.1-0.4,0.2-0.5l0,0
		c0.1-0.3,4.3-5.2,0-7.1l-8.1-4c-3.4-1.7-4.9-5.8-3.2-9.3c0.7-1.6,2.1-2.8,3.6-3.5l15.3-6.6c2-0.8,3.6-2.4,4.4-4.5
		c0.4-1.2,0.6-2.4,0.4-3.7l-0.2-1.8c-1.6-14.2-3.8-35.4,5.2-46.8c1.6-2.1,3.6-3.8,6.1-4.9h18.7l-7.7,22.5H289
		c8.9,0,16.1,7.3,16.1,16.3c0,0.6,0,1.1-0.1,1.7l-3.3,30.7h6.6l12.5-17.6c0,0,0,0,0.1-0.1c4-5.6,10.3-6,16.8-4.2
		c5.8,1.7,10.2,6.3,11.7,12.2c1.7,6.3-0.2,13.1-4.8,17.6l0,0l-0.1,0.1l-7.9,7.1c-2.7,2.4-3,6.6-0.6,9.4c0.2,0.2,0.4,0.4,0.6,0.6
		L396,365.5z"/>
	<path class="st1" d="M228.9,274.5l1.8,0.9c4.2,2.1,9.5,0.9,12.3-3l4.6-6.2c0.6-0.7,1.3-1.4,2.1-1.9l1.6-1l-2.2,1.3
		c-0.4,0.3-0.8,0.5-1.2,0.8l-7.5,6c-2.5,1.9-5.5,3-8.7,3L228.9,274.5z"/>
	<path class="st1" d="M231.5,272l1.5,1.2c1.2,1,2.9,1.2,4.3,0.6l3.2-1.5l7.8-7.1l-1.4,1.1c-2,1.6-4,3-6.3,4.1l-1.9,1
		C236.6,272.5,234,272.7,231.5,272L231.5,272z"/>
	<path class="st1" d="M251.2,260.8c-2.3-4-5.9-7-10.3-8.2c-0.2-2.2-0.3-4.4-0.2-6.7c4.8,3.6,8.5,8.7,10.3,14.5L251.2,260.8z"/>
	<path class="st8" d="M372.1,616H255.4l-5.9-38.4c-5.1-25.6,0.4-52.2,15.1-72.4l38.3-52.5c4.6-6.4,8.7-11.9,11.4-17.7
		c4.5-9.9,4.4-21.4-0.3-31.3l-8.2-17.5l18.7-24.8l21-0.6l59,7.8l42.8,74.8L372.1,616z"/>
	<ellipse class="st7" cx="383.6" cy="513" rx="63.7" ry="64.8"/>
	<polyline class="st7" points="325.1,538.5 356.3,616 370.7,554 	"/>
	<path class="st2" d="M243.9,312.4l-10.2,12.7c-2.1-1.2-2.7-3.9-1.5-6c0.5-0.9,1.4-1.6,2.4-1.9c0.8-0.3,2.8-1,4.5-1.6
		C241,314.9,242.7,313.8,243.9,312.4z"/>
	<path class="st2" d="M243.9,312.4l-10.2,12.7c-2.1-1.2-2.7-3.9-1.5-6c0.5-0.9,1.4-1.6,2.4-1.9c0.8-0.3,2.8-1,4.5-1.6
		C241,314.9,242.7,313.8,243.9,312.4z"/>
	<path class="st2" d="M242.9,313.6c-1.6,1.5-3.6,2.3-5.7,2.4c-5.2,0.5-10.7-2.2-8.3-6.6c0.1-0.2,0.2-0.4,0.2-0.5s0.3-0.4,0.6-0.8
		l4,3c3.1,2.3,6.1,6.1,10.2,1.3C243.9,312.4,243.1,313.4,242.9,313.6z"/>
	<path class="st0" d="M374.6,439.3l-5.6-16.9l-30.1-7.2c-8.6-2-14-10.7-12.1-19.4l1.9-8.6c0.6-2.8-0.2-5.7-2.1-7.8l-0.8-0.9l14.3-16
		l-10.6,6.4c-1.9,1.1-4.1,0.8-5.7-0.6l0,0c-1.4-1.3-1.6-3.4-0.5-4.9l1.1-1.5c1.1-1.4,0.9-3.5-0.5-4.6l-8.1-7.2
		c-2.2-1.9-2.4-5.2-0.5-7.4c0.3-0.3,0.6-0.6,0.9-0.8l18.1-13.3c0.8-0.6,1.4-1.3,1.7-2.2l0,0c1.5-3.6,1.3-7.7-0.7-11.1l0,0
		c-1.9-3.2-2.4-7.1-1.5-10.7c0.9-3.8,2.3-7.4,4-10.8c3.2-5.8,7-11.2,11.4-16.2V291c0,7.2,3.4,13.9,9.2,18.1l0,0
		c6.2,4.5,10.4,12.4,9.8,20.1l4.3-0.6l0,0c3.8-7,12.6-9.5,19.5-5.5c4.6,2.6,7.4,7.6,7.3,13c-0.1,3-1,5.9-2.8,8.2L396,345
		c0,0,0,0.1-0.1,0.1l-10.5,13.8c-2.3,3-1.9,7.3,0.9,9.8l-3.3,96.1L374.6,439.3z"/>
	<path class="st7" d="M358.5,276.2l-9.2,0.9l-1.1,13.5c-0.6,7.7,3.3,15.1,10,18.9l0,0c6.2,3.5,10,10.1,10,17.3v1.9l8.6-27.3
		L358.5,276.2z"/>
	<path class="st1" d="M332.3,327.9c1,0.4,2.1,0.2,3-0.4l6.8-5l-1,0.7c-1.3,1-3,1.2-4.4,0.6l0,0c-1.7,2.7-4.9,3.9-7.9,2.8
		L332.3,327.9z"/>
	<path class="st3" d="M364,349.7L364,349.7c0.5-3.2,1.5-7.2,2.7-11.5c5.5-20.6,0-42.6-14.6-58l-2.9-3l0,0
		c34.9-28.3,81-37.9,124-25.5l18.6,5.3v147.4l-2.8,1.9c-12,9.2-14.5,26.5-5.4,38.8c0.4,0.5,0.8,1,1.2,1.5c0,0-18.7-5.4-28.8,2.3
		l-74.4,57.4l3.4-14.9c1.8-7.7,1.4-15.7-1.1-23.2L370,425.8C361.8,401.3,359.7,375.1,364,349.7z"/>
	<path class="st9" d="M492,457.3v48.1c-13.1,27.3-45.4,38.8-72.3,25.4c-26.9-13.3-38.1-46.2-25-73.5s45.4-38.8,72.3-25.4
		C477.8,437.3,486.7,446.2,492,457.3z"/>
	<polygon class="st9" points="356.3,616 390.4,469.6 485.7,447.2 491.9,463.2 491.9,616 	"/>
	<path class="st7" d="M332,303.2l10.1,3.9c1.2,0.5,2.2,1.5,2.6,2.7l2.8,9.1l-1.2-4c-0.5-1.7-2-2.9-3.6-3.2l-9.4-1.5L332,303.2z"/>
	<path class="st5" d="M339.9,362.2l-10.6,6.4l0,0c-1.9,1.1-4.1,0.8-5.7-0.6c-0.8-0.7-1.2-1.7-1.2-2.7c0-0.8,0.3-1.6,0.7-2.2l0,0
		l4.7,1.7c3.1,1.1,6.4,0.8,9.3-0.9L339.9,362.2z"/>
	<path class="st5" d="M339.9,362.2l-14.3,16l-0.7-0.8l0,0c-1.4-2-1.3-5.4,0.9-6.8L339.9,362.2z"/>
	<path class="st7" d="M105.3,362.6l-8.8,7.5c-1.6,0.6-3.2,1-4.9,1.3c-1.3-0.1-2.6-0.7-3.4-1.6l0,0c-0.7-0.7-1.1-1.7-1.2-2.7l1.1,0.6
		c3.3,1.8,7.4,1.6,10.5-0.5L105.3,362.6z"/>
	<polygon class="st2" points="105.3,368.1 105.3,362.6 96.5,370.1 91.1,375.8 103.4,375.8 	"/>
</g>
</svg>
